HIERARCHY
ROOT Hips
{
	OFFSET 0.000000 0.000000 0.000000
	CHANNELS 6 Xposition Yposition Zposition Zrotation Yrotation Xrotation 
	JOINT LHipJoint
	{
		OFFSET 0.000000 0.000000 0.000000
		CHANNELS 3 Zrotation Yrotation Xrotation
		JOINT LeftUpLeg
		{
			OFFSET 1.363060 -1.794630 0.839290
			CHANNELS 3 Zrotation Yrotation Xrotation
			JOINT LeftLeg
			{
				OFFSET 2.448110 -6.726130 0.000000
				CHANNELS 3 Zrotation Yrotation Xrotation
				JOINT LeftFoot
				{
					OFFSET 2.562200 -7.039590 0.000000
					CHANNELS 3 Zrotation Yrotation Xrotation
					JOINT LeftToeBase
					{
						OFFSET 0.157640 -0.433110 2.322550
						CHANNELS 3 Zrotation Yrotation Xrotation
						End Site
						{
							OFFSET 0.000000 0.000000 0.000000
						}
					}
				}
			}
		}
	}
	JOINT RHipJoint
	{
		OFFSET 0.000000 0.000000 0.000000
		CHANNELS 3 Zrotation Yrotation Xrotation
		JOINT RightUpLeg
		{
			OFFSET -1.305520 -1.794630 0.839290
			CHANNELS 3 Zrotation Yrotation Xrotation
			JOINT RightLeg
			{
				OFFSET -2.542530 -6.985550 0.000000
				CHANNELS 3 Zrotation Yrotation Xrotation
				JOINT RightFoot
				{
					OFFSET -2.568260 -7.056230 0.000000
					CHANNELS 3 Zrotation Yrotation Xrotation
					JOINT RightToeBase
					{
						OFFSET -0.164730 -0.452590 2.363150
						CHANNELS 3 Zrotation Yrotation Xrotation
						End Site
						{
							OFFSET 0.000000 0.000000 0.000000
						}
					}
				}
			}
		}
	}
	JOINT LowerBack
	{
		OFFSET 0.000000 0.000000 0.000000
		CHANNELS 3 Zrotation Yrotation Xrotation
		JOINT Spine
		{
			OFFSET 0.028270 2.035590 -0.193380
			CHANNELS 3 Zrotation Yrotation Xrotation
			JOINT Spine1
			{
				OFFSET 0.056720 2.048850 -0.042750
				CHANNELS 3 Zrotation Yrotation Xrotation
				JOINT Neck
				{
					OFFSET 0.000000 0.000000 0.000000
					CHANNELS 3 Zrotation Yrotation Xrotation
					JOINT Neck1
					{
						OFFSET -0.054170 1.746240 0.172020
						CHANNELS 3 Zrotation Yrotation Xrotation
						JOINT Head
						{
							OFFSET 0.104070 1.761360 -0.123970
							CHANNELS 3 Zrotation Yrotation Xrotation
							End Site
							{
								OFFSET 0.000000 0.000000 0.000000
							}
						}
					}
				}
				JOINT LeftShoulder
				{
					OFFSET 0.000000 0.000000 0.000000
					CHANNELS 3 Zrotation Yrotation Xrotation
					JOINT LeftArm
					{
						OFFSET 3.362410 1.200890 -0.311210
						CHANNELS 3 Zrotation Yrotation Xrotation
						JOINT LeftForeArm
						{
							OFFSET 4.983000 -0.000000 -0.000000
							CHANNELS 3 Zrotation Yrotation Xrotation
							JOINT LeftHand
							{
								OFFSET 3.483560 -0.000000 -0.000000
								CHANNELS 3 Zrotation Yrotation Xrotation
								JOINT LeftFingerBase
								{
									OFFSET 0.000000 0.000000 0.000000
									CHANNELS 3 Zrotation Yrotation Xrotation
									JOINT LeftHandIndex1
									{
										OFFSET 0.715260 -0.000000 -0.000000
										CHANNELS 3 Zrotation Yrotation Xrotation
										End Site
										{
											OFFSET 0.000000 0.000000 0.000000
										}
									}
								}
								JOINT LThumb
								{
									OFFSET 0.000000 0.000000 0.000000
									CHANNELS 3 Zrotation Yrotation Xrotation
									End Site
									{
										OFFSET 0.000000 0.000000 0.000000
									}
								}
							}
						}
					}
				}
				JOINT RightShoulder
				{
					OFFSET 0.000000 0.000000 0.000000
					CHANNELS 3 Zrotation Yrotation Xrotation
					JOINT RightArm
					{
						OFFSET -3.136600 1.374050 -0.404650
						CHANNELS 3 Zrotation Yrotation Xrotation
						JOINT RightForeArm
						{
							OFFSET -5.241900 -0.000000 -0.000000
							CHANNELS 3 Zrotation Yrotation Xrotation
							JOINT RightHand
							{
								OFFSET -3.444170 -0.000000 -0.000000
								CHANNELS 3 Zrotation Yrotation Xrotation
								JOINT RightFingerBase
								{
									OFFSET 0.000000 0.000000 0.000000
									CHANNELS 3 Zrotation Yrotation Xrotation
									JOINT RightHandIndex1
									{
										OFFSET -0.622530 -0.000000 -0.000000
										CHANNELS 3 Zrotation Yrotation Xrotation
										End Site
										{
											OFFSET 0.000000 0.000000 0.000000
										}
									}
								}
								JOINT RThumb
								{
									OFFSET 0.000000 0.000000 0.000000
									CHANNELS 3 Zrotation Yrotation Xrotation
									End Site
									{
										OFFSET 0.000000 0.000000 0.000000
									}
								}
							}
						}
					}
				}
			}
		}
	}
}
MOTION
Frames: 5
Frame Time: 0.008333
10.804953 18.001025 4.499928 177.850255 1.134235 -159.980656 10.821643 0.958674 -2.875250 -14.834230 -21.612463 -66.865375 16.580246 25.567827 82.639529 1.105710 -4.488569 -22.545396 2.096100 -9.063300 -25.993700 -14.268092 -2.757350 -1.907540 33.779892 16.237738 -16.337375 0.984053 -4.966054 11.997113 -0.758008 0.703335 -17.129561 -1.663100 8.125900 -23.097100 -3.280352 -0.396116 -15.160652 1.605339 -0.341063 -3.900412 -0.146458 -0.935027 14.002198 -9.027977 -4.152362 -4.908347 7.726666 -4.972094 29.364938 0.783500 -0.472300 7.310400 15.895012 -0.579718 0.920620 -104.537651 -1.867655 17.085057 10.549440 -11.398135 -1.366499 -1.184299 1.137863 11.108752 16.238694 -10.126219 -3.461900 -7.125000 0.000000 0.000000 -6.669600 18.515700 4.235100 -11.334247 0.860351 -0.127849 96.445257 0.501198 15.904340 -21.697925 33.809118 -8.355683 0.145413 3.576632 -9.911396 -13.319653 -46.032393 10.787400 7.125000 0.000000 0.000000 52.724600 -75.078200 -39.689300 
10.804953 18.004640 4.439889 177.856119 1.234345 -160.041333 10.837741 0.966508 -2.887302 -14.488970 -21.686714 -67.492845 16.284165 25.571156 81.853010 1.118708 -4.226234 -22.442118 2.374900 -9.606700 -27.712300 -14.272096 -2.765321 -1.916986 33.853967 16.303150 -16.005444 0.978772 -4.945676 12.027559 -0.777272 0.760795 -17.288547 -1.672900 8.148600 -23.166400 -3.259576 -0.345998 -15.055171 1.616796 -0.280871 -3.873299 -0.111682 -0.899441 14.011230 -9.201890 -4.114048 -4.719068 7.728061 -4.948303 29.197442 0.811400 -0.491500 7.209000 15.869520 -0.591165 0.941996 -104.697940 -1.766886 15.860700 10.461005 -11.260293 -1.325436 -1.162901 1.091589 11.803761 16.054482 -9.544009 -3.223700 -7.125000 0.000000 0.000000 -6.813600 19.190400 4.225100 -11.336388 0.839589 -0.132435 96.254002 0.615874 16.293859 -21.929774 34.039464 -8.499454 0.176510 3.568982 -9.874099 -13.715568 -45.895290 11.091800 7.125000 0.000000 0.000000 51.876800 -75.160000 -39.058400 
10.806049 18.005626 4.383028 177.704072 1.307508 -160.019237 10.853186 0.983234 -2.883688 -14.291413 -21.841841 -68.055877 15.918227 25.556543 80.886498 1.107305 -4.066875 -22.267324 2.537300 -9.905400 -28.670900 -14.257272 -2.774869 -1.935799 33.727057 16.214585 -15.820463 0.971153 -4.919199 12.030198 -0.787575 0.823486 -17.355702 -1.706900 8.226900 -23.405500 -3.446454 -0.334381 -15.019263 1.580645 -0.209382 -3.861944 -0.114119 -0.872808 14.014951 -9.101572 -4.138561 -4.669720 7.672241 -4.977692 29.176511 0.764400 -0.501100 7.185100 15.864670 -0.571685 0.958126 -104.645346 -1.608665 15.017462 10.334603 -11.083060 -1.283668 -1.197953 1.201167 12.107905 16.519145 -10.214460 -3.567900 -7.125000 0.000000 0.000000 -6.443300 18.366300 4.110900 -11.348025 0.826425 -0.142641 96.219891 0.641253 16.696125 -22.212355 34.332038 -8.677412 0.225765 3.553082 -9.779866 -14.325711 -45.648286 11.550900 7.125000 0.000000 0.000000 50.430400 -75.262000 -37.950200 
10.808678 18.006941 4.326386 177.569887 1.270126 -159.981291 10.874409 0.989845 -2.884057 -14.081629 -22.028306 -68.520909 15.498742 25.522217 79.777329 1.088490 -3.944879 -22.078958 2.508100 -9.852700 -28.500900 -14.242028 -2.777120 -1.939055 33.608891 16.279990 -15.591821 0.977325 -4.880951 11.988055 -0.808220 0.680220 -17.547365 -1.674200 8.151600 -23.175600 -3.586383 -0.286668 -14.934653 1.518600 -0.107892 -3.877175 -0.211559 -0.805901 13.794633 -9.191919 -2.145139 -4.693136 8.423765 -5.637435 29.050896 0.794200 -1.948100 7.191700 15.894216 -0.648697 1.037450 -104.481693 -1.316908 14.402823 10.192397 -10.879938 -1.242568 -1.270749 1.393791 12.314087 17.439370 -11.494513 -4.270100 -7.125000 0.000000 0.000000 -5.739200 16.785000 3.856900 -11.362875 0.798506 -0.089102 96.293921 0.514115 16.997961 -22.495486 34.616741 -8.856113 0.176618 3.638152 -9.788741 -14.112444 -47.524251 11.681500 7.125000 0.000000 0.000000 57.524500 -76.118700 -44.823100 
10.811527 18.010995 4.266895 177.491605 1.209165 -160.001054 10.893192 0.994972 -2.888981 -13.854205 -22.145622 -68.891268 15.097525 25.470805 78.714115 1.019257 -4.021557 -21.702246 2.347800 -9.555800 -27.550000 -14.238457 -2.768677 -1.937461 33.588129 16.498678 -15.262586 0.991263 -4.868704 12.019331 -0.838892 0.258779 -17.863095 -1.675700 8.155200 -23.186400 -3.650390 -0.235391 -14.827660 1.473774 -0.017704 -3.874902 -0.260170 -0.755008 13.717805 -9.368938 -2.135354 -4.708734 8.712822 -5.740634 29.152789 0.926200 -1.997100 7.245200 15.888604 -0.638491 1.045242 -104.399509 -1.049011 13.959326 10.136183 -10.815931 -1.225282 -1.316458 1.472315 12.443731 17.950018 -12.011015 -4.606700 -7.125000 0.000000 0.000000 -5.356100 16.132600 3.673200 -11.389641 0.762019 -0.097993 96.319916 0.533835 17.141604 -22.590816 34.715439 -8.918579 0.185861 3.645851 -9.808731 -14.324002 -47.720227 11.891400 7.125000 0.000000 0.000000 58.129000 -76.289100 -45.523100 
